{"asset":{"version":"2.0","generator":"ChatGPT CarGen"},"scene":0,"scenes":[{"nodes":[0]}],"nodes":[{"name":"Car","children":[1,2,3,4,5,6,7,8,9]},{"name":"BodyNode","mesh":0,"translation":[0.0,0.6499999999999999,0.0]},{"name":"RoofNode","mesh":1,"translation":[0.0,1.125,0.0]},{"name":"GlassNode","mesh":2,"translation":[0.0,1.0599999999999998,0.05]},{"name":"Wheel_FL","mesh":3,"translation":[0.8500000000000001,0.35,1.15],"rotation":[0.0,0.0,-0.7071067811865476,0.7071067811865476]},{"name":"Wheel_FR","mesh":3,"translation":[-0.8500000000000001,0.35,1.15],"rotation":[0.0,0.0,-0.7071067811865476,0.7071067811865476]},{"name":"Wheel_RL","mesh":3,"translation":[0.8500000000000001,0.35,-1.15],"rotation":[0.0,0.0,-0.7071067811865476,0.7071067811865476]},{"name":"Wheel_RR","mesh":3,"translation":[-0.8500000000000001,0.35,-1.15],"rotation":[0.0,0.0,-0.7071067811865476,0.7071067811865476]},{"name":"Headlight_L","mesh":4,"translation":[0.45,0.5,1.72]},{"name":"Headlight_R","mesh":4,"translation":[-0.45,0.5,1.72]}],"meshes":[{"name":"Body","primitives":[{"attributes":{"POSITION":0,"NORMAL":1},"indices":2,"material":0}]},{"name":"Roof","primitives":[{"attributes":{"POSITION":3,"NORMAL":4},"indices":5,"material":1}]},{"name":"Glass","primitives":[{"attributes":{"POSITION":6,"NORMAL":7},"indices":8,"material":2}]},{"name":"Wheel","primitives":[{"attributes":{"POSITION":9,"NORMAL":10},"indices":11,"material":3}]},{"name":"Headlight","primitives":[{"attributes":{"POSITION":12,"NORMAL":13},"indices":14,"material":4}]}],"materials":[{"name":"CarPaint","pbrMetallicRoughness":{"baseColorFactor":[0.86,0.1,0.12,1.0],"metallicFactor":0.6,"roughnessFactor":0.35}},{"name":"RoofPaint","pbrMetallicRoughness":{"baseColorFactor":[0.5,0.05,0.08,1.0],"metallicFactor":0.6,"roughnessFactor":0.45}},{"name":"Glass","pbrMetallicRoughness":{"baseColorFactor":[0.6,0.75,0.9,0.35],"metallicFactor":0.0,"roughnessFactor":0.05},"alphaMode":"BLEND","doubleSided":true},{"name":"Tyre","pbrMetallicRoughness":{"baseColorFactor":[0.05,0.05,0.05,1.0],"metallicFactor":0.0,"roughnessFactor":0.9},"doubleSided":true},{"name":"Headlight","pbrMetallicRoughness":{"baseColorFactor":[1.0,1.0,0.95,1.0],"metallicFactor":0.0,"roughnessFactor":0.6},"emissiveFactor":[1.0,0.95,0.7]}],"buffers":[{"byteLength":6384,"uri":"data:application/octet-stream;base64,"}],"bufferViews":[{"buffer":0,"byteOffset":0,"byteLength":288},{"buffer":0,"byteOffset":288,"byteLength":288},{"buffer":0,"byteOffset":576,"byteLength":144},{"buffer":0,"byteOffset":720,"byteLength":288},{"buffer":0,"byteOffset":1008,"byteLength":288},{"buffer":0,"byteOffset":1296,"byteLength":144},{"buffer":0,"byteOffset":1440,"byteLength":288},{"buffer":0,"byteOffset":1728,"byteLength":288},{"buffer":0,"byteOffset":2016,"byteLength":144},{"buffer":0,"byteOffset":2160,"byteLength":1176},{"buffer":0,"byteOffset":3336,"byteLength":1176},{"buffer":0,"byteOffset":4512,"byteLength":1152},{"buffer":0,"byteOffset":5664,"byteLength":288},{"buffer":0,"byteOffset":5952,"byteLength":288},{"buffer":0,"byteOffset":6240,"byteLength":144}],"accessors":[{"bufferView":0,"componentType":5126,"count":24,"type":"VEC3","min":[-0.8,-0.3,-1.8],"max":[0.8,0.3,1.8]},{"bufferView":1,"componentType":5126,"count":24,"type":"VEC3"},{"bufferView":2,"componentType":5125,"count":36,"type":"SCALAR"},{"bufferView":3,"componentType":5126,"count":24,"type":"VEC3","min":[-0.7,-0.175,-0.9],"max":[0.7,0.175,0.9]},{"bufferView":4,"componentType":5126,"count":24,"type":"VEC3"},{"bufferView":5,"componentType":5125,"count":36,"type":"SCALAR"},{"bufferView":6,"componentType":5126,"count":24,"type":"VEC3","min":[-0.75,-0.16,-0.8],"max":[0.75,0.16,0.8]},{"bufferView":7,"componentType":5126,"count":24,"type":"VEC3"},{"bufferView":8,"componentType":5125,"count":36,"type":"SCALAR"},{"bufferView":9,"componentType":5126,"count":98,"type":"VEC3","min":[-0.35,-0.14,-0.35],"max":[0.35,0.14,0.35]},{"bufferView":10,"componentType":5126,"count":98,"type":"VEC3"},{"bufferView":11,"componentType":5125,"count":288,"type":"SCALAR"},{"bufferView":12,"componentType":5126,"count":24,"type":"VEC3","min":[-0.09,-0.06,-0.03],"max":[0.09,0.06,0.03]},{"bufferView":13,"componentType":5126,"count":24,"type":"VEC3"},{"bufferView":14,"componentType":5125,"count":36,"type":"SCALAR"}]}