{
  "asset": {
    "version": "2.0",
    "generator": "ChatGPT procedural glTF"
  },
  "scene": 0,
  "scenes": [
    {
      "nodes": [
        7
      ]
    }
  ],
  "nodes": [
    {
      "name": "BodyNode",
      "mesh": 0
    },
    {
      "name": "GlassNode",
      "mesh": 2
    },
    {
      "name": "WingNode",
      "mesh": 3
    },
    {
      "name": "WheelFL",
      "mesh": 1,
      "translation": [
        0.94,
        0.0,
        1.3
      ]
    },
    {
      "name": "WheelFR",
      "mesh": 1,
      "translation": [
        -0.94,
        0.0,
        1.3
      ]
    },
    {
      "name": "WheelRL",
      "mesh": 1,
      "translation": [
        0.94,
        0.0,
        -1.25
      ]
    },
    {
      "name": "WheelRR",
      "mesh": 1,
      "translation": [
        -0.94,
        0.0,
        -1.25
      ]
    },
    {
      "name": "ItalianGTRacer",
      "children": [
        0,
        1,
        2,
        3,
        4,
        5,
        6
      ]
    }
  ],
  "meshes": [
    {
      "name": "Body",
      "primitives": [
        {
          "attributes": {
            "POSITION": 0,
            "NORMAL": 1,
            "TEXCOORD_0": 2
          },
          "indices": 3,
          "material": 0
        }
      ]
    },
    {
      "name": "Wheel",
      "primitives": [
        {
          "attributes": {
            "POSITION": 4,
            "NORMAL": 5,
            "TEXCOORD_0": 6
          },
          "indices": 7,
          "material": 1
        },
        {
          "attributes": {
            "POSITION": 8,
            "NORMAL": 9,
            "TEXCOORD_0": 10
          },
          "indices": 11,
          "material": 2
        }
      ]
    },
    {
      "name": "Windshield",
      "primitives": [
        {
          "attributes": {
            "POSITION": 12,
            "NORMAL": 13,
            "TEXCOORD_0": 14
          },
          "indices": 15,
          "material": 3
        }
      ]
    },
    {
      "name": "Wing",
      "primitives": [
        {
          "attributes": {
            "POSITION": 16,
            "NORMAL": 17,
            "TEXCOORD_0": 18
          },
          "indices": 19,
          "material": 4
        }
      ]
    }
  ],
  "materials": [
    {
      "name": "Rosso Paint",
      "pbrMetallicRoughness": {
        "baseColorFactor": [
          0.7,
          0.02,
          0.05,
          1.0
        ],
        "metallicFactor": 0.75,
        "roughnessFactor": 0.22
      },
      "clearcoat": {
        "clearcoatFactor": 1.0,
        "clearcoatRoughnessFactor": 0.05
      }
    },
    {
      "name": "Tire Rubber",
      "pbrMetallicRoughness": {
        "baseColorFactor": [
          0.02,
          0.02,
          0.02,
          1.0
        ],
        "metallicFactor": 0.0,
        "roughnessFactor": 0.9
      }
    },
    {
      "name": "Rim Metal",
      "pbrMetallicRoughness": {
        "baseColorFactor": [
          0.6,
          0.6,
          0.62,
          1.0
        ],
        "metallicFactor": 1.0,
        "roughnessFactor": 0.18
      }
    },
    {
      "name": "Glass",
      "pbrMetallicRoughness": {
        "baseColorFactor": [
          0.55,
          0.7,
          0.85,
          0.2
        ],
        "metallicFactor": 0.0,
        "roughnessFactor": 0.05
      },
      "alphaMode": "BLEND",
      "doubleSided": true
    },
    {
      "name": "Carbon Wing",
      "pbrMetallicRoughness": {
        "baseColorFactor": [
          0.04,
          0.04,
          0.045,
          1.0
        ],
        "metallicFactor": 0.1,
        "roughnessFactor": 0.55
      }
    }
  ],
  "buffers": [
    {
      "uri": "data:application/octet-stream;base64,",
      "byteLength": 12420
    }
  ],
  "bufferViews": [
    {
      "buffer": 0,
      "byteOffset": 0,
      "byteLength": 1248,
      "target": 34962
    },
    {
      "buffer": 0,
      "byteOffset": 1248,
      "byteLength": 1248,
      "target": 34962
    },
    {
      "buffer": 0,
      "byteOffset": 2496,
      "byteLength": 832,
      "target": 34962
    },
    {
      "buffer": 0,
      "byteOffset": 3328,
      "byteLength": 1236,
      "target": 34963
    },
    {
      "buffer": 0,
      "byteOffset": 4564,
      "byteLength": 744,
      "target": 34962
    },
    {
      "buffer": 0,
      "byteOffset": 5308,
      "byteLength": 744,
      "target": 34962
    },
    {
      "buffer": 0,
      "byteOffset": 6052,
      "byteLength": 496,
      "target": 34962
    },
    {
      "buffer": 0,
      "byteOffset": 6548,
      "byteLength": 720,
      "target": 34963
    },
    {
      "buffer": 0,
      "byteOffset": 7268,
      "byteLength": 744,
      "target": 34962
    },
    {
      "buffer": 0,
      "byteOffset": 8012,
      "byteLength": 744,
      "target": 34962
    },
    {
      "buffer": 0,
      "byteOffset": 8756,
      "byteLength": 496,
      "target": 34962
    },
    {
      "buffer": 0,
      "byteOffset": 9252,
      "byteLength": 720,
      "target": 34963
    },
    {
      "buffer": 0,
      "byteOffset": 9972,
      "byteLength": 432,
      "target": 34962
    },
    {
      "buffer": 0,
      "byteOffset": 10404,
      "byteLength": 432,
      "target": 34962
    },
    {
      "buffer": 0,
      "byteOffset": 10836,
      "byteLength": 288,
      "target": 34962
    },
    {
      "buffer": 0,
      "byteOffset": 11124,
      "byteLength": 72,
      "target": 34963
    },
    {
      "buffer": 0,
      "byteOffset": 11196,
      "byteLength": 432,
      "target": 34962
    },
    {
      "buffer": 0,
      "byteOffset": 11628,
      "byteLength": 432,
      "target": 34962
    },
    {
      "buffer": 0,
      "byteOffset": 12060,
      "byteLength": 288,
      "target": 34962
    },
    {
      "buffer": 0,
      "byteOffset": 12348,
      "byteLength": 72,
      "target": 34963
    }
  ],
  "accessors": [
    {
      "bufferView": 0,
      "byteOffset": 0,
      "componentType": 5126,
      "count": 104,
      "type": "VEC3",
      "min": [
        -0.925,
        0.06,
        -2.225
      ],
      "max": [
        0.925,
        1.2109088554588443,
        2.225
      ]
    },
    {
      "bufferView": 1,
      "byteOffset": 0,
      "componentType": 5126,
      "count": 104,
      "type": "VEC3"
    },
    {
      "bufferView": 2,
      "byteOffset": 0,
      "componentType": 5126,
      "count": 104,
      "type": "VEC2"
    },
    {
      "bufferView": 3,
      "byteOffset": 0,
      "componentType": 5123,
      "count": 618,
      "type": "SCALAR"
    },
    {
      "bufferView": 4,
      "byteOffset": 0,
      "componentType": 5126,
      "count": 62,
      "type": "VEC3",
      "min": [
        -0.14,
        0.0018625555747870948,
        -0.34
      ],
      "max": [
        0.14,
        0.6781374444252131,
        0.34
      ]
    },
    {
      "bufferView": 5,
      "byteOffset": 0,
      "componentType": 5126,
      "count": 62,
      "type": "VEC3"
    },
    {
      "bufferView": 6,
      "byteOffset": 0,
      "componentType": 5126,
      "count": 62,
      "type": "VEC2"
    },
    {
      "bufferView": 7,
      "byteOffset": 0,
      "componentType": 5123,
      "count": 360,
      "type": "SCALAR"
    },
    {
      "bufferView": 8,
      "byteOffset": 0,
      "componentType": 5126,
      "count": 62,
      "type": "VEC3",
      "min": [
        -0.12,
        0.1212051830189799,
        -0.22
      ],
      "max": [
        0.12,
        0.5587948169810202,
        0.22
      ]
    },
    {
      "bufferView": 9,
      "byteOffset": 0,
      "componentType": 5126,
      "count": 62,
      "type": "VEC3"
    },
    {
      "bufferView": 10,
      "byteOffset": 0,
      "componentType": 5126,
      "count": 62,
      "type": "VEC2"
    },
    {
      "bufferView": 11,
      "byteOffset": 0,
      "componentType": 5123,
      "count": 360,
      "type": "SCALAR"
    },
    {
      "bufferView": 12,
      "byteOffset": 0,
      "componentType": 5126,
      "count": 36,
      "type": "VEC3",
      "min": [
        -0.55,
        0.6,
        0.1
      ],
      "max": [
        0.55,
        1.05,
        0.44
      ]
    },
    {
      "bufferView": 13,
      "byteOffset": 0,
      "componentType": 5126,
      "count": 36,
      "type": "VEC3"
    },
    {
      "bufferView": 14,
      "byteOffset": 0,
      "componentType": 5126,
      "count": 36,
      "type": "VEC2"
    },
    {
      "bufferView": 15,
      "byteOffset": 0,
      "componentType": 5123,
      "count": 36,
      "type": "SCALAR"
    },
    {
      "bufferView": 16,
      "byteOffset": 0,
      "componentType": 5126,
      "count": 36,
      "type": "VEC3",
      "min": [
        -0.675,
        0.87,
        -2.075
      ],
      "max": [
        0.675,
        0.9700000000000001,
        -1.625
      ]
    },
    {
      "bufferView": 17,
      "byteOffset": 0,
      "componentType": 5126,
      "count": 36,
      "type": "VEC3"
    },
    {
      "bufferView": 18,
      "byteOffset": 0,
      "componentType": 5126,
      "count": 36,
      "type": "VEC2"
    },
    {
      "bufferView": 19,
      "byteOffset": 0,
      "componentType": 5123,
      "count": 36,
      "type": "SCALAR"
    }
  ],
  "extensionsUsed": [
    "KHR_materials_clearcoat"
  ],
  "extensionsRequired": [
    "KHR_materials_clearcoat"
  ]
}